<mxfile host="app.diagrams.net" agent="Mozilla/5.0 (X11; Linux x86_64) AppleWebKit/537.36 (KHTML, like Gecko) Chrome/132.0.0.0 Safari/537.36" version="26.0.6">
  <diagram id="C5RBs43oDa-KdzZeNtuy" name="Page-1">
    <mxGraphModel dx="2195" dy="754" grid="1" gridSize="10" guides="1" tooltips="1" connect="1" arrows="1" fold="1" page="1" pageScale="1" pageWidth="827" pageHeight="1169" math="0" shadow="0">
      <root>
        <mxCell id="WIyWlLk6GJQsqaUBKTNV-0" />
        <mxCell id="WIyWlLk6GJQsqaUBKTNV-1" parent="WIyWlLk6GJQsqaUBKTNV-0" />
        <mxCell id="WIyWlLk6GJQsqaUBKTNV-2" value="" style="rounded=0;html=1;jettySize=auto;orthogonalLoop=1;fontSize=11;endArrow=block;endFill=0;endSize=8;strokeWidth=1;shadow=0;labelBackgroundColor=none;edgeStyle=orthogonalEdgeStyle;" parent="WIyWlLk6GJQsqaUBKTNV-1" source="WIyWlLk6GJQsqaUBKTNV-3" target="WIyWlLk6GJQsqaUBKTNV-6" edge="1">
          <mxGeometry relative="1" as="geometry" />
        </mxCell>
        <mxCell id="WIyWlLk6GJQsqaUBKTNV-3" value="PROFESOR" style="rounded=1;whiteSpace=wrap;html=1;fontSize=12;glass=0;strokeWidth=1;shadow=0;" parent="WIyWlLk6GJQsqaUBKTNV-1" vertex="1">
          <mxGeometry x="170" y="85" width="120" height="40" as="geometry" />
        </mxCell>
        <mxCell id="5huOWfONVNbslyj4KIUK-3" style="edgeStyle=orthogonalEdgeStyle;rounded=0;orthogonalLoop=1;jettySize=auto;html=1;exitX=1;exitY=0.5;exitDx=0;exitDy=0;entryX=0;entryY=0.5;entryDx=0;entryDy=0;" parent="WIyWlLk6GJQsqaUBKTNV-1" source="WIyWlLk6GJQsqaUBKTNV-6" target="WIyWlLk6GJQsqaUBKTNV-7" edge="1">
          <mxGeometry relative="1" as="geometry" />
        </mxCell>
        <mxCell id="WIyWlLk6GJQsqaUBKTNV-6" value="DAN CLASE" style="rhombus;whiteSpace=wrap;html=1;shadow=0;fontFamily=Helvetica;fontSize=12;align=center;strokeWidth=1;spacing=6;spacingTop=-4;" parent="WIyWlLk6GJQsqaUBKTNV-1" vertex="1">
          <mxGeometry x="440" y="65" width="100" height="80" as="geometry" />
        </mxCell>
        <mxCell id="WIyWlLk6GJQsqaUBKTNV-7" value="ALUMNO" style="rounded=1;whiteSpace=wrap;html=1;fontSize=12;glass=0;strokeWidth=1;shadow=0;" parent="WIyWlLk6GJQsqaUBKTNV-1" vertex="1">
          <mxGeometry x="670" y="85" width="120" height="40" as="geometry" />
        </mxCell>
        <mxCell id="5huOWfONVNbslyj4KIUK-1" value="1:N" style="text;html=1;align=center;verticalAlign=middle;whiteSpace=wrap;rounded=0;" parent="WIyWlLk6GJQsqaUBKTNV-1" vertex="1">
          <mxGeometry x="550" y="70" width="60" height="30" as="geometry" />
        </mxCell>
        <mxCell id="5huOWfONVNbslyj4KIUK-5" value="1:1" style="text;html=1;align=center;verticalAlign=middle;whiteSpace=wrap;rounded=0;" parent="WIyWlLk6GJQsqaUBKTNV-1" vertex="1">
          <mxGeometry x="280" y="70" width="60" height="30" as="geometry" />
        </mxCell>
        <mxCell id="5huOWfONVNbslyj4KIUK-6" value="1:N" style="text;html=1;align=center;verticalAlign=middle;whiteSpace=wrap;rounded=0;" parent="WIyWlLk6GJQsqaUBKTNV-1" vertex="1">
          <mxGeometry x="460" y="35" width="60" height="30" as="geometry" />
        </mxCell>
        <mxCell id="5huOWfONVNbslyj4KIUK-7" value="1" style="text;html=1;align=center;verticalAlign=middle;whiteSpace=wrap;rounded=0;" parent="WIyWlLk6GJQsqaUBKTNV-1" vertex="1">
          <mxGeometry x="-10" y="90" width="60" height="30" as="geometry" />
        </mxCell>
        <mxCell id="5huOWfONVNbslyj4KIUK-8" value="2." style="text;html=1;align=center;verticalAlign=middle;whiteSpace=wrap;rounded=0;" parent="WIyWlLk6GJQsqaUBKTNV-1" vertex="1">
          <mxGeometry x="-10" y="250" width="60" height="30" as="geometry" />
        </mxCell>
        <mxCell id="5huOWfONVNbslyj4KIUK-15" value="" style="edgeStyle=orthogonalEdgeStyle;rounded=0;orthogonalLoop=1;jettySize=auto;html=1;" parent="WIyWlLk6GJQsqaUBKTNV-1" source="5huOWfONVNbslyj4KIUK-9" edge="1">
          <mxGeometry relative="1" as="geometry">
            <mxPoint x="410" y="270" as="targetPoint" />
            <Array as="points">
              <mxPoint x="300" y="260" />
            </Array>
          </mxGeometry>
        </mxCell>
        <mxCell id="5huOWfONVNbslyj4KIUK-9" value="PROFESOR" style="rounded=1;whiteSpace=wrap;html=1;fontSize=12;glass=0;strokeWidth=1;shadow=0;" parent="WIyWlLk6GJQsqaUBKTNV-1" vertex="1">
          <mxGeometry x="150" y="240" width="130" height="40" as="geometry" />
        </mxCell>
        <mxCell id="5huOWfONVNbslyj4KIUK-10" value="PROFESOR" style="rounded=1;whiteSpace=wrap;html=1;fontSize=12;glass=0;strokeWidth=1;shadow=0;" parent="WIyWlLk6GJQsqaUBKTNV-1" vertex="1">
          <mxGeometry x="670" y="240" width="120" height="40" as="geometry" />
        </mxCell>
        <mxCell id="5huOWfONVNbslyj4KIUK-16" style="edgeStyle=orthogonalEdgeStyle;rounded=0;orthogonalLoop=1;jettySize=auto;html=1;entryX=0;entryY=0.5;entryDx=0;entryDy=0;" parent="WIyWlLk6GJQsqaUBKTNV-1" source="5huOWfONVNbslyj4KIUK-11" target="5huOWfONVNbslyj4KIUK-10" edge="1">
          <mxGeometry relative="1" as="geometry" />
        </mxCell>
        <mxCell id="5huOWfONVNbslyj4KIUK-11" value="SER TUTOR" style="rhombus;whiteSpace=wrap;html=1;shadow=0;fontFamily=Helvetica;fontSize=12;align=center;strokeWidth=1;spacing=6;spacingTop=-4;" parent="WIyWlLk6GJQsqaUBKTNV-1" vertex="1">
          <mxGeometry x="414" y="225" width="100" height="80" as="geometry" />
        </mxCell>
        <mxCell id="5huOWfONVNbslyj4KIUK-12" value="1:1" style="text;html=1;align=center;verticalAlign=middle;whiteSpace=wrap;rounded=0;" parent="WIyWlLk6GJQsqaUBKTNV-1" vertex="1">
          <mxGeometry x="270" y="210" width="60" height="30" as="geometry" />
        </mxCell>
        <mxCell id="5huOWfONVNbslyj4KIUK-13" value="0:N" style="text;html=1;align=center;verticalAlign=middle;whiteSpace=wrap;rounded=0;" parent="WIyWlLk6GJQsqaUBKTNV-1" vertex="1">
          <mxGeometry x="610" y="210" width="60" height="30" as="geometry" />
        </mxCell>
        <mxCell id="5huOWfONVNbslyj4KIUK-14" value="1:N" style="text;html=1;align=center;verticalAlign=middle;whiteSpace=wrap;rounded=0;" parent="WIyWlLk6GJQsqaUBKTNV-1" vertex="1">
          <mxGeometry x="440" y="190" width="60" height="30" as="geometry" />
        </mxCell>
        <mxCell id="5huOWfONVNbslyj4KIUK-17" value="3." style="text;html=1;align=center;verticalAlign=middle;whiteSpace=wrap;rounded=0;" parent="WIyWlLk6GJQsqaUBKTNV-1" vertex="1">
          <mxGeometry y="400" width="60" height="30" as="geometry" />
        </mxCell>
        <mxCell id="5huOWfONVNbslyj4KIUK-25" style="edgeStyle=orthogonalEdgeStyle;rounded=0;orthogonalLoop=1;jettySize=auto;html=1;exitX=1;exitY=0.5;exitDx=0;exitDy=0;" parent="WIyWlLk6GJQsqaUBKTNV-1" source="5huOWfONVNbslyj4KIUK-19" target="5huOWfONVNbslyj4KIUK-22" edge="1">
          <mxGeometry relative="1" as="geometry" />
        </mxCell>
        <mxCell id="5huOWfONVNbslyj4KIUK-19" value="CLIENTE" style="rounded=1;whiteSpace=wrap;html=1;fontSize=12;glass=0;strokeWidth=1;shadow=0;" parent="WIyWlLk6GJQsqaUBKTNV-1" vertex="1">
          <mxGeometry x="150" y="400" width="130" height="40" as="geometry" />
        </mxCell>
        <mxCell id="5huOWfONVNbslyj4KIUK-20" value="PRODUCTO" style="rounded=1;whiteSpace=wrap;html=1;fontSize=12;glass=0;strokeWidth=1;shadow=0;" parent="WIyWlLk6GJQsqaUBKTNV-1" vertex="1">
          <mxGeometry x="670" y="400" width="130" height="40" as="geometry" />
        </mxCell>
        <mxCell id="5huOWfONVNbslyj4KIUK-21" value="PERSONA" style="rounded=1;whiteSpace=wrap;html=1;fontSize=12;glass=0;strokeWidth=1;shadow=0;" parent="WIyWlLk6GJQsqaUBKTNV-1" vertex="1">
          <mxGeometry x="150" y="560" width="130" height="40" as="geometry" />
        </mxCell>
        <mxCell id="5huOWfONVNbslyj4KIUK-24" style="edgeStyle=orthogonalEdgeStyle;rounded=0;orthogonalLoop=1;jettySize=auto;html=1;exitX=1;exitY=0.5;exitDx=0;exitDy=0;entryX=0;entryY=0.75;entryDx=0;entryDy=0;" parent="WIyWlLk6GJQsqaUBKTNV-1" source="5huOWfONVNbslyj4KIUK-22" target="5huOWfONVNbslyj4KIUK-20" edge="1">
          <mxGeometry relative="1" as="geometry" />
        </mxCell>
        <mxCell id="5huOWfONVNbslyj4KIUK-22" value="COMPRA" style="rhombus;whiteSpace=wrap;html=1;shadow=0;fontFamily=Helvetica;fontSize=12;align=center;strokeWidth=1;spacing=6;spacingTop=-4;" parent="WIyWlLk6GJQsqaUBKTNV-1" vertex="1">
          <mxGeometry x="420" y="390" width="100" height="80" as="geometry" />
        </mxCell>
        <mxCell id="5huOWfONVNbslyj4KIUK-26" value="1:N" style="text;html=1;align=center;verticalAlign=middle;whiteSpace=wrap;rounded=0;" parent="WIyWlLk6GJQsqaUBKTNV-1" vertex="1">
          <mxGeometry x="280" y="380" width="60" height="30" as="geometry" />
        </mxCell>
        <mxCell id="5huOWfONVNbslyj4KIUK-27" value="N:M" style="text;html=1;align=center;verticalAlign=middle;whiteSpace=wrap;rounded=0;" parent="WIyWlLk6GJQsqaUBKTNV-1" vertex="1">
          <mxGeometry x="440" y="360" width="60" height="30" as="geometry" />
        </mxCell>
        <mxCell id="5huOWfONVNbslyj4KIUK-28" value="1:N" style="text;html=1;align=center;verticalAlign=middle;whiteSpace=wrap;rounded=0;" parent="WIyWlLk6GJQsqaUBKTNV-1" vertex="1">
          <mxGeometry x="620" y="370" width="60" height="30" as="geometry" />
        </mxCell>
        <mxCell id="5huOWfONVNbslyj4KIUK-29" value="4." style="text;html=1;align=center;verticalAlign=middle;whiteSpace=wrap;rounded=0;" parent="WIyWlLk6GJQsqaUBKTNV-1" vertex="1">
          <mxGeometry y="560" width="60" height="30" as="geometry" />
        </mxCell>
        <mxCell id="5huOWfONVNbslyj4KIUK-30" value="PADRE" style="rounded=1;whiteSpace=wrap;html=1;fontSize=12;glass=0;strokeWidth=1;shadow=0;" parent="WIyWlLk6GJQsqaUBKTNV-1" vertex="1">
          <mxGeometry x="670" y="555" width="130" height="40" as="geometry" />
        </mxCell>
        <mxCell id="5huOWfONVNbslyj4KIUK-41" style="edgeStyle=orthogonalEdgeStyle;rounded=0;orthogonalLoop=1;jettySize=auto;html=1;exitX=1;exitY=0.5;exitDx=0;exitDy=0;entryX=0;entryY=0.5;entryDx=0;entryDy=0;" parent="WIyWlLk6GJQsqaUBKTNV-1" source="5huOWfONVNbslyj4KIUK-31" target="5huOWfONVNbslyj4KIUK-37" edge="1">
          <mxGeometry relative="1" as="geometry" />
        </mxCell>
        <mxCell id="5huOWfONVNbslyj4KIUK-31" value="1ER ATLETA" style="rounded=1;whiteSpace=wrap;html=1;fontSize=12;glass=0;strokeWidth=1;shadow=0;" parent="WIyWlLk6GJQsqaUBKTNV-1" vertex="1">
          <mxGeometry x="80" y="760" width="130" height="40" as="geometry" />
        </mxCell>
        <mxCell id="5huOWfONVNbslyj4KIUK-42" style="edgeStyle=orthogonalEdgeStyle;rounded=0;orthogonalLoop=1;jettySize=auto;html=1;exitX=1;exitY=0.5;exitDx=0;exitDy=0;" parent="WIyWlLk6GJQsqaUBKTNV-1" source="5huOWfONVNbslyj4KIUK-32" target="5huOWfONVNbslyj4KIUK-38" edge="1">
          <mxGeometry relative="1" as="geometry" />
        </mxCell>
        <mxCell id="5huOWfONVNbslyj4KIUK-32" value="2DO ATLETA" style="rounded=1;whiteSpace=wrap;html=1;fontSize=12;glass=0;strokeWidth=1;shadow=0;" parent="WIyWlLk6GJQsqaUBKTNV-1" vertex="1">
          <mxGeometry x="420" y="760" width="130" height="40" as="geometry" />
        </mxCell>
        <mxCell id="5huOWfONVNbslyj4KIUK-33" value="PUEDE SER" style="rhombus;whiteSpace=wrap;html=1;shadow=0;fontFamily=Helvetica;fontSize=12;align=center;strokeWidth=1;spacing=6;spacingTop=-4;" parent="WIyWlLk6GJQsqaUBKTNV-1" vertex="1">
          <mxGeometry x="430" y="535" width="100" height="80" as="geometry" />
        </mxCell>
        <mxCell id="5huOWfONVNbslyj4KIUK-34" value="1:N" style="text;html=1;align=center;verticalAlign=middle;whiteSpace=wrap;rounded=0;" parent="WIyWlLk6GJQsqaUBKTNV-1" vertex="1">
          <mxGeometry x="280" y="535" width="60" height="30" as="geometry" />
        </mxCell>
        <mxCell id="5huOWfONVNbslyj4KIUK-35" value="1:N" style="text;html=1;align=center;verticalAlign=middle;whiteSpace=wrap;rounded=0;" parent="WIyWlLk6GJQsqaUBKTNV-1" vertex="1">
          <mxGeometry x="610" y="540" width="60" height="30" as="geometry" />
        </mxCell>
        <mxCell id="5huOWfONVNbslyj4KIUK-36" value="5." style="text;html=1;align=center;verticalAlign=middle;whiteSpace=wrap;rounded=0;" parent="WIyWlLk6GJQsqaUBKTNV-1" vertex="1">
          <mxGeometry y="760" width="60" height="30" as="geometry" />
        </mxCell>
        <mxCell id="5huOWfONVNbslyj4KIUK-40" style="edgeStyle=orthogonalEdgeStyle;rounded=0;orthogonalLoop=1;jettySize=auto;html=1;exitX=1;exitY=0.5;exitDx=0;exitDy=0;entryX=0;entryY=0.5;entryDx=0;entryDy=0;" parent="WIyWlLk6GJQsqaUBKTNV-1" source="5huOWfONVNbslyj4KIUK-37" target="5huOWfONVNbslyj4KIUK-32" edge="1">
          <mxGeometry relative="1" as="geometry" />
        </mxCell>
        <mxCell id="5huOWfONVNbslyj4KIUK-37" value="DAR RELEVO" style="rhombus;whiteSpace=wrap;html=1;shadow=0;fontFamily=Helvetica;fontSize=12;align=center;strokeWidth=1;spacing=6;spacingTop=-4;" parent="WIyWlLk6GJQsqaUBKTNV-1" vertex="1">
          <mxGeometry x="270" y="740" width="100" height="80" as="geometry" />
        </mxCell>
        <mxCell id="5huOWfONVNbslyj4KIUK-43" style="edgeStyle=orthogonalEdgeStyle;rounded=0;orthogonalLoop=1;jettySize=auto;html=1;exitX=1;exitY=0.5;exitDx=0;exitDy=0;entryX=0;entryY=0.5;entryDx=0;entryDy=0;" parent="WIyWlLk6GJQsqaUBKTNV-1" source="5huOWfONVNbslyj4KIUK-38" target="5huOWfONVNbslyj4KIUK-39" edge="1">
          <mxGeometry relative="1" as="geometry" />
        </mxCell>
        <mxCell id="5huOWfONVNbslyj4KIUK-38" value="DAR RELEVO" style="rhombus;whiteSpace=wrap;html=1;shadow=0;fontFamily=Helvetica;fontSize=12;align=center;strokeWidth=1;spacing=6;spacingTop=-4;" parent="WIyWlLk6GJQsqaUBKTNV-1" vertex="1">
          <mxGeometry x="620" y="740" width="100" height="80" as="geometry" />
        </mxCell>
        <mxCell id="5huOWfONVNbslyj4KIUK-39" value="3ER ATLETA" style="rounded=1;whiteSpace=wrap;html=1;fontSize=12;glass=0;strokeWidth=1;shadow=0;" parent="WIyWlLk6GJQsqaUBKTNV-1" vertex="1">
          <mxGeometry x="790" y="755" width="130" height="40" as="geometry" />
        </mxCell>
        <mxCell id="5huOWfONVNbslyj4KIUK-44" value="1:0" style="text;html=1;align=center;verticalAlign=middle;whiteSpace=wrap;rounded=0;" parent="WIyWlLk6GJQsqaUBKTNV-1" vertex="1">
          <mxGeometry x="200" y="750" width="60" height="30" as="geometry" />
        </mxCell>
        <mxCell id="5huOWfONVNbslyj4KIUK-45" value="1:1&lt;span style=&quot;color: rgba(0, 0, 0, 0); font-family: monospace; font-size: 0px; text-align: start; text-wrap-mode: nowrap;&quot;&gt;%3CmxGraphModel%3E%3Croot%3E%3CmxCell%20id%3D%220%22%2F%3E%3CmxCell%20id%3D%221%22%20parent%3D%220%22%2F%3E%3CmxCell%20id%3D%222%22%20value%3D%221%3A0%22%20style%3D%22text%3Bhtml%3D1%3Balign%3Dcenter%3BverticalAlign%3Dmiddle%3BwhiteSpace%3Dwrap%3Brounded%3D0%3B%22%20vertex%3D%221%22%20parent%3D%221%22%3E%3CmxGeometry%20x%3D%22200%22%20y%3D%22750%22%20width%3D%2260%22%20height%3D%2230%22%20as%3D%22geometry%22%2F%3E%3C%2FmxCell%3E%3C%2Froot%3E%3C%2FmxGraphModel%3E&lt;/span&gt;" style="text;html=1;align=center;verticalAlign=middle;whiteSpace=wrap;rounded=0;" parent="WIyWlLk6GJQsqaUBKTNV-1" vertex="1">
          <mxGeometry x="370" y="750" width="60" height="30" as="geometry" />
        </mxCell>
        <mxCell id="5huOWfONVNbslyj4KIUK-46" value="1:1" style="text;html=1;align=center;verticalAlign=middle;whiteSpace=wrap;rounded=0;" parent="WIyWlLk6GJQsqaUBKTNV-1" vertex="1">
          <mxGeometry x="290" y="710" width="60" height="30" as="geometry" />
        </mxCell>
        <mxCell id="5huOWfONVNbslyj4KIUK-47" value="1:0" style="text;html=1;align=center;verticalAlign=middle;whiteSpace=wrap;rounded=0;" parent="WIyWlLk6GJQsqaUBKTNV-1" vertex="1">
          <mxGeometry x="540" y="755" width="60" height="30" as="geometry" />
        </mxCell>
        <mxCell id="5huOWfONVNbslyj4KIUK-48" value="1:1" style="text;html=1;align=center;verticalAlign=middle;whiteSpace=wrap;rounded=0;" parent="WIyWlLk6GJQsqaUBKTNV-1" vertex="1">
          <mxGeometry x="730" y="750" width="60" height="30" as="geometry" />
        </mxCell>
        <mxCell id="5huOWfONVNbslyj4KIUK-49" value="1:1" style="text;html=1;align=center;verticalAlign=middle;whiteSpace=wrap;rounded=0;" parent="WIyWlLk6GJQsqaUBKTNV-1" vertex="1">
          <mxGeometry x="640" y="710" width="60" height="30" as="geometry" />
        </mxCell>
        <mxCell id="5huOWfONVNbslyj4KIUK-50" value="6." style="text;html=1;align=center;verticalAlign=middle;whiteSpace=wrap;rounded=0;" parent="WIyWlLk6GJQsqaUBKTNV-1" vertex="1">
          <mxGeometry y="940" width="60" height="30" as="geometry" />
        </mxCell>
        <mxCell id="5huOWfONVNbslyj4KIUK-51" value="DEPARTAMENTO" style="rounded=1;whiteSpace=wrap;html=1;fontSize=12;glass=0;strokeWidth=1;shadow=0;" parent="WIyWlLk6GJQsqaUBKTNV-1" vertex="1">
          <mxGeometry x="80" y="920" width="130" height="40" as="geometry" />
        </mxCell>
        <mxCell id="5huOWfONVNbslyj4KIUK-52" value="NOMBRE" style="ellipse;whiteSpace=wrap;html=1;" parent="WIyWlLk6GJQsqaUBKTNV-1" vertex="1">
          <mxGeometry x="30" y="1010" width="120" height="80" as="geometry" />
        </mxCell>
        <mxCell id="5huOWfONVNbslyj4KIUK-53" value="EMPLEADO" style="rounded=1;whiteSpace=wrap;html=1;fontSize=12;glass=0;strokeWidth=1;shadow=0;" parent="WIyWlLk6GJQsqaUBKTNV-1" vertex="1">
          <mxGeometry x="690" y="920" width="130" height="40" as="geometry" />
        </mxCell>
        <mxCell id="5huOWfONVNbslyj4KIUK-54" value="N." style="ellipse;whiteSpace=wrap;html=1;" parent="WIyWlLk6GJQsqaUBKTNV-1" vertex="1">
          <mxGeometry x="-100" y="1010" width="120" height="80" as="geometry" />
        </mxCell>
        <mxCell id="5huOWfONVNbslyj4KIUK-55" value="LOCALIDAD" style="ellipse;whiteSpace=wrap;html=1;" parent="WIyWlLk6GJQsqaUBKTNV-1" vertex="1">
          <mxGeometry x="150" y="1010" width="120" height="80" as="geometry" />
        </mxCell>
        <mxCell id="5huOWfONVNbslyj4KIUK-56" value="" style="endArrow=none;html=1;rounded=0;" parent="WIyWlLk6GJQsqaUBKTNV-1" edge="1">
          <mxGeometry width="50" height="50" relative="1" as="geometry">
            <mxPoint x="80" y="1010" as="sourcePoint" />
            <mxPoint x="130" y="960" as="targetPoint" />
          </mxGeometry>
        </mxCell>
        <mxCell id="5huOWfONVNbslyj4KIUK-61" value="" style="endArrow=none;html=1;rounded=0;entryX=0.054;entryY=1.025;entryDx=0;entryDy=0;entryPerimeter=0;" parent="WIyWlLk6GJQsqaUBKTNV-1" target="5huOWfONVNbslyj4KIUK-51" edge="1">
          <mxGeometry width="50" height="50" relative="1" as="geometry">
            <mxPoint x="-5" y="1020" as="sourcePoint" />
            <mxPoint x="80" y="960" as="targetPoint" />
            <Array as="points" />
          </mxGeometry>
        </mxCell>
        <mxCell id="5huOWfONVNbslyj4KIUK-62" value="" style="endArrow=none;html=1;rounded=0;entryX=0.75;entryY=1;entryDx=0;entryDy=0;" parent="WIyWlLk6GJQsqaUBKTNV-1" target="5huOWfONVNbslyj4KIUK-51" edge="1">
          <mxGeometry width="50" height="50" relative="1" as="geometry">
            <mxPoint x="200" y="1010" as="sourcePoint" />
            <mxPoint x="250" y="960" as="targetPoint" />
          </mxGeometry>
        </mxCell>
        <mxCell id="5huOWfONVNbslyj4KIUK-63" value="APELLIDO" style="ellipse;whiteSpace=wrap;html=1;" parent="WIyWlLk6GJQsqaUBKTNV-1" vertex="1">
          <mxGeometry x="700" y="1040" width="120" height="80" as="geometry" />
        </mxCell>
        <mxCell id="5huOWfONVNbslyj4KIUK-64" value="N. EMPELADO" style="ellipse;whiteSpace=wrap;html=1;" parent="WIyWlLk6GJQsqaUBKTNV-1" vertex="1">
          <mxGeometry x="580" y="1040" width="120" height="80" as="geometry" />
        </mxCell>
        <mxCell id="5huOWfONVNbslyj4KIUK-65" value="SALARIO" style="ellipse;whiteSpace=wrap;html=1;" parent="WIyWlLk6GJQsqaUBKTNV-1" vertex="1">
          <mxGeometry x="820" y="1030" width="120" height="80" as="geometry" />
        </mxCell>
        <mxCell id="5huOWfONVNbslyj4KIUK-66" value="" style="endArrow=none;html=1;rounded=0;entryX=0.069;entryY=1.05;entryDx=0;entryDy=0;entryPerimeter=0;" parent="WIyWlLk6GJQsqaUBKTNV-1" target="5huOWfONVNbslyj4KIUK-53" edge="1">
          <mxGeometry width="50" height="50" relative="1" as="geometry">
            <mxPoint x="640" y="1040" as="sourcePoint" />
            <mxPoint x="690" y="990" as="targetPoint" />
          </mxGeometry>
        </mxCell>
        <mxCell id="5huOWfONVNbslyj4KIUK-67" value="" style="endArrow=none;html=1;rounded=0;entryX=0.5;entryY=1;entryDx=0;entryDy=0;" parent="WIyWlLk6GJQsqaUBKTNV-1" target="5huOWfONVNbslyj4KIUK-53" edge="1">
          <mxGeometry width="50" height="50" relative="1" as="geometry">
            <mxPoint x="760" y="1040" as="sourcePoint" />
            <mxPoint x="810" y="990" as="targetPoint" />
          </mxGeometry>
        </mxCell>
        <mxCell id="5huOWfONVNbslyj4KIUK-68" value="" style="endArrow=none;html=1;rounded=0;entryX=0.75;entryY=1;entryDx=0;entryDy=0;" parent="WIyWlLk6GJQsqaUBKTNV-1" target="5huOWfONVNbslyj4KIUK-53" edge="1">
          <mxGeometry width="50" height="50" relative="1" as="geometry">
            <mxPoint x="880" y="1030" as="sourcePoint" />
            <mxPoint x="930" y="980" as="targetPoint" />
          </mxGeometry>
        </mxCell>
        <mxCell id="5huOWfONVNbslyj4KIUK-69" value="ESTAN ASIGNADOS" style="rhombus;whiteSpace=wrap;html=1;shadow=0;fontFamily=Helvetica;fontSize=12;align=center;strokeWidth=1;spacing=6;spacingTop=-4;" parent="WIyWlLk6GJQsqaUBKTNV-1" vertex="1">
          <mxGeometry x="400" y="900" width="100" height="80" as="geometry" />
        </mxCell>
        <mxCell id="5huOWfONVNbslyj4KIUK-70" value="JEFE" style="rhombus;whiteSpace=wrap;html=1;shadow=0;fontFamily=Helvetica;fontSize=12;align=center;strokeWidth=1;spacing=6;spacingTop=-4;" parent="WIyWlLk6GJQsqaUBKTNV-1" vertex="1">
          <mxGeometry x="960" y="840" width="100" height="80" as="geometry" />
        </mxCell>
        <mxCell id="5huOWfONVNbslyj4KIUK-71" value="0:N" style="text;html=1;align=center;verticalAlign=middle;whiteSpace=wrap;rounded=0;" parent="WIyWlLk6GJQsqaUBKTNV-1" vertex="1">
          <mxGeometry x="630" y="910" width="60" height="30" as="geometry" />
        </mxCell>
        <mxCell id="5huOWfONVNbslyj4KIUK-72" value="1:1" style="text;html=1;align=center;verticalAlign=middle;whiteSpace=wrap;rounded=0;" parent="WIyWlLk6GJQsqaUBKTNV-1" vertex="1">
          <mxGeometry x="210" y="910" width="60" height="30" as="geometry" />
        </mxCell>
        <mxCell id="5huOWfONVNbslyj4KIUK-73" value="" style="endArrow=none;html=1;rounded=0;entryX=0;entryY=0.5;entryDx=0;entryDy=0;" parent="WIyWlLk6GJQsqaUBKTNV-1" target="5huOWfONVNbslyj4KIUK-69" edge="1">
          <mxGeometry width="50" height="50" relative="1" as="geometry">
            <mxPoint x="210" y="940" as="sourcePoint" />
            <mxPoint x="290" y="890" as="targetPoint" />
            <Array as="points">
              <mxPoint x="280" y="940" />
            </Array>
          </mxGeometry>
        </mxCell>
        <mxCell id="5huOWfONVNbslyj4KIUK-74" value="" style="endArrow=none;html=1;rounded=0;entryX=0;entryY=0.5;entryDx=0;entryDy=0;" parent="WIyWlLk6GJQsqaUBKTNV-1" target="5huOWfONVNbslyj4KIUK-53" edge="1">
          <mxGeometry width="50" height="50" relative="1" as="geometry">
            <mxPoint x="500" y="940" as="sourcePoint" />
            <mxPoint x="550" y="890" as="targetPoint" />
          </mxGeometry>
        </mxCell>
        <mxCell id="5huOWfONVNbslyj4KIUK-75" value="1:N" style="text;html=1;align=center;verticalAlign=middle;whiteSpace=wrap;rounded=0;" parent="WIyWlLk6GJQsqaUBKTNV-1" vertex="1">
          <mxGeometry x="414" y="870" width="60" height="30" as="geometry" />
        </mxCell>
        <mxCell id="5huOWfONVNbslyj4KIUK-77" value="" style="endArrow=none;html=1;rounded=0;" parent="WIyWlLk6GJQsqaUBKTNV-1" edge="1">
          <mxGeometry width="50" height="50" relative="1" as="geometry">
            <mxPoint x="-65" y="1060" as="sourcePoint" />
            <mxPoint x="-15" y="1060" as="targetPoint" />
          </mxGeometry>
        </mxCell>
        <mxCell id="5huOWfONVNbslyj4KIUK-79" value="" style="endArrow=none;html=1;rounded=0;" parent="WIyWlLk6GJQsqaUBKTNV-1" edge="1">
          <mxGeometry width="50" height="50" relative="1" as="geometry">
            <mxPoint x="605" y="1090" as="sourcePoint" />
            <mxPoint x="675" y="1090" as="targetPoint" />
          </mxGeometry>
        </mxCell>
        <mxCell id="5huOWfONVNbslyj4KIUK-80" value="" style="endArrow=none;html=1;rounded=0;entryX=0;entryY=0.5;entryDx=0;entryDy=0;" parent="WIyWlLk6GJQsqaUBKTNV-1" target="5huOWfONVNbslyj4KIUK-70" edge="1">
          <mxGeometry width="50" height="50" relative="1" as="geometry">
            <mxPoint x="750" y="920" as="sourcePoint" />
            <mxPoint x="800" y="870" as="targetPoint" />
            <Array as="points">
              <mxPoint x="750" y="880" />
            </Array>
          </mxGeometry>
        </mxCell>
        <mxCell id="5huOWfONVNbslyj4KIUK-81" value="" style="endArrow=none;html=1;rounded=0;entryX=0.5;entryY=1;entryDx=0;entryDy=0;" parent="WIyWlLk6GJQsqaUBKTNV-1" target="5huOWfONVNbslyj4KIUK-70" edge="1">
          <mxGeometry width="50" height="50" relative="1" as="geometry">
            <mxPoint x="820" y="940" as="sourcePoint" />
            <mxPoint x="870" y="890" as="targetPoint" />
            <Array as="points">
              <mxPoint x="1010" y="940" />
            </Array>
          </mxGeometry>
        </mxCell>
        <mxCell id="5huOWfONVNbslyj4KIUK-82" value="1:1" style="text;html=1;align=center;verticalAlign=middle;whiteSpace=wrap;rounded=0;" parent="WIyWlLk6GJQsqaUBKTNV-1" vertex="1">
          <mxGeometry x="850" y="850" width="60" height="30" as="geometry" />
        </mxCell>
        <mxCell id="5huOWfONVNbslyj4KIUK-83" value="1:N" style="text;html=1;align=center;verticalAlign=middle;whiteSpace=wrap;rounded=0;" parent="WIyWlLk6GJQsqaUBKTNV-1" vertex="1">
          <mxGeometry x="880" y="910" width="60" height="30" as="geometry" />
        </mxCell>
        <mxCell id="5huOWfONVNbslyj4KIUK-84" value="1:N" style="text;html=1;align=center;verticalAlign=middle;whiteSpace=wrap;rounded=0;" parent="WIyWlLk6GJQsqaUBKTNV-1" vertex="1">
          <mxGeometry x="980" y="810" width="60" height="30" as="geometry" />
        </mxCell>
      </root>
    </mxGraphModel>
  </diagram>
</mxfile>
